Coordinates
version=1
nRows=29
nColumns=22
inDegrees=yes

Units are S.I. units (second, meters, Newtons, ...)
If the header above contains a line with 'inDegrees', this indicates whether rotational values are in degrees (yes) or radians (no).

endheader
time	pelvis_tilt	pelvis_list	pelvis_rotation	pelvis_tx	pelvis_ty	pelvis_tz	hip_flexion_r	hip_adduction_r	hip_rotation_r	knee_angle_r	ankle_angle_r	subtalar_angle_r	hip_flexion_l	hip_adduction_l	hip_rotation_l	knee_angle_l	ankle_angle_l	subtalar_angle_l	lumbar_extension	lumbar_bending	lumbar_rotation
      0.01000000	      0.16231663	     -2.20604549	     -5.54890728	     -1.35700056	      0.93785384	      0.02296657	      0.14111816	      2.49614019	     -1.00341097	     -9.14000912	      4.63336660	     -0.31148713	     -0.48340895	     -3.44454056	    -14.40629702	    -11.12916831	      8.38023555	     -0.87574662	     -5.00283433	     -1.73149990	      1.96156705
      0.02000000	      0.16538150	     -2.20543903	     -5.53968067	     -1.35696222	      0.93785051	      0.02291882	      0.13686045	      2.49332528	     -1.00171597	     -9.14373834	      4.63255316	     -0.31249424	     -0.48544587	     -3.44144451	    -14.40520412	    -11.13257429	      8.38080424	     -0.87618435	     -4.99969846	     -1.72634002	      1.96580300
      0.03000000	      0.21939328	     -2.21202569	     -5.50446708	     -1.35691319	      0.93791430	      0.02283289	      0.06545212	      2.49216817	     -1.03616847	     -9.12781521	      4.63476598	     -0.34040792	     -0.53786196	     -3.44003068	    -14.36064802	    -11.14174630	      8.40640946	     -0.89265518	     -5.06221019	     -1.71784115	      1.95769650
      0.04000000	      0.22261625	     -2.21113047	     -5.49199299	     -1.35685919	      0.93791101	      0.02276819	      0.05859559	      2.48760583	     -1.03437415	     -9.13051280	      4.63456716	     -0.34090007	     -0.54041568	     -3.43591564	    -14.35942248	    -11.14544893	      8.40522743	     -0.89278758	     -5.05720516	     -1.70962148	      1.96460870
      0.05000000	      0.23879323	     -2.21258085	     -5.46486811	     -1.35682032	      0.93792814	      0.02268986	      0.02448208	      2.48483250	     -1.04850581	     -9.10527816	      4.64117260	     -0.34282465	     -0.54464439	     -3.43468280	    -14.33026834	    -11.16811767	      8.40232132	     -0.89432489	     -5.07625784	     -1.70326510	      1.99441797
      0.06000000	      0.30875447	     -2.23468036	     -5.40248013	     -1.35671369	      0.93802171	      0.02255347	     -0.09124839	      2.49716981	     -1.10511280	     -9.05105282	      4.63458340	     -0.35030672	     -0.62056116	     -3.44657215	    -14.25948187	    -11.16662839	      8.42152707	     -0.90114176	     -5.15146697	     -1.66899137	      1.93636037
      0.07000000	      0.31911350	     -2.23582368	     -5.38063111	     -1.35664897	      0.93803464	      0.02248388	     -0.11885592	      2.49365150	     -1.12029237	     -9.03143815	      4.63408851	     -0.34996304	     -0.62559900	     -3.44562105	    -14.24168130	    -11.17979324	      8.41798247	     -0.90152964	     -5.15749528	     -1.66037294	      1.96098807
      0.08000000	      0.35334546	     -2.25359843	     -5.32110331	     -1.35658025	      0.93808268	      0.02235082	     -0.18931054	      2.50535832	     -1.16789727	     -8.98385930	      4.62725174	     -0.34527641	     -0.65220010	     -3.45913170	    -14.18358193	    -11.19384866	      8.43040156	     -0.90291083	     -5.19970620	     -1.62742273	      1.92048997
      0.09000000	      0.35364512	     -2.25183950	     -5.30370548	     -1.35652785	      0.93808315	      0.02227738	     -0.19545298	      2.49964796	     -1.16837711	     -8.98346655	      4.62741481	     -0.34499923	     -0.65110718	     -3.45454325	    -14.18241884	    -11.19600795	      8.43035399	     -0.90275426	     -5.19849945	     -1.61595888	      1.92898671
      0.10000000	      0.37051711	     -2.26623675	     -5.22735876	     -1.35647467	      0.93810385	      0.02212645	     -0.24919547	      2.50931529	     -1.24584590	     -8.93025299	      4.62972508	     -0.33001735	     -0.64424611	     -3.46954092	    -14.10090652	    -11.23082169	      8.44304709	     -0.90434341	     -5.22549280	     -1.58598675	      1.88565238
      0.11000000	      0.36850957	     -2.26371972	     -5.20616870	     -1.35643927	      0.93810087	      0.02204377	     -0.25077789	      2.50289619	     -1.24552175	     -8.93065388	      4.62979293	     -0.32953916	     -0.64068746	     -3.46464489	    -14.10204257	    -11.22863755	      8.44329632	     -0.90425644	     -5.22906192	     -1.57458500	      1.89341812
      0.12000000	      0.36541935	     -2.25844187	     -5.12537554	     -1.35641531	      0.93809203	      0.02187293	     -0.26018143	      2.49246612	     -1.34174614	     -8.91429420	      4.64436538	     -0.30581542	     -0.61298426	     -3.45799002	    -14.02407301	    -11.25037820	      8.44043706	     -0.91016425	     -5.23847398	     -1.56323347	      1.84334495
      0.13000000	      0.36114772	     -2.25459870	     -5.09949477	     -1.35639690	      0.93808479	      0.02177394	     -0.25662785	      2.48443571	     -1.33973871	     -8.91582370	      4.64475045	     -0.30527249	     -0.60786370	     -3.45149236	    -14.02885318	    -11.24287147	      8.44086834	     -0.91027474	     -5.24676049	     -1.54993814	      1.84951795
      0.14000000	      0.34362587	     -2.22472434	     -5.04214708	     -1.35638094	      0.93805629	      0.02161560	     -0.22267530	      2.44655507	     -1.42450837	     -8.94635170	      4.67272327	     -0.28613057	     -0.58434229	     -3.41504728	    -14.00348316	    -11.22511562	      8.41947603	     -0.91966893	     -5.24168181	     -1.56138210	      1.80112394
      0.15000000	      0.33720714	     -2.21962444	     -5.01285791	     -1.35637369	      0.93804532	      0.02152402	     -0.21540480	      2.43936127	     -1.42141424	     -8.94871052	      4.67415959	     -0.28553026	     -0.57746557	     -3.40821320	    -14.00922159	    -11.21408976	      8.41953184	     -0.92014131	     -5.25499668	     -1.54946686	      1.80757669
      0.16000000	      0.31149633	     -2.17490984	     -4.97067564	     -1.35635894	      0.93800235	      0.02140104	     -0.15269218	      2.38680607	     -1.50062275	     -9.01719196	      4.72927172	     -0.26569273	     -0.55494490	     -3.35426654	    -13.98299105	    -11.17814216	      8.38061697	     -0.93937329	     -5.24392018	     -1.57973745	      1.77800639
      0.17000000	      0.30209993	     -2.16955740	     -4.94898504	     -1.35633778	      0.93798639	      0.02134973	     -0.14287521	      2.38161596	     -1.49809667	     -9.01794826	      4.73050797	     -0.26541002	     -0.54935064	     -3.34858840	    -13.99094792	    -11.16485800	      8.38149460	     -0.93995640	     -5.26090614	     -1.56963505	      1.78009377
      0.18000000	      0.28195497	     -2.13478743	     -4.93786159	     -1.35628530	      0.93795049	      0.02131241	     -0.08696473	      2.34258991	     -1.54497031	     -9.08856762	      4.77677524	     -0.25714377	     -0.54739337	     -3.30698784	    -14.00057072	    -11.11889818	      8.35654436	     -0.95593066	     -5.25786511	     -1.59380650	      1.76920447
      0.19000000	      0.27097492	     -2.13045485	     -4.92592879	     -1.35622605	      0.93793068	      0.02131074	     -0.07864762	      2.34110738	     -1.54347157	     -9.08862105	      4.77814415	     -0.25712944	     -0.54350718	     -3.30382757	    -14.00654685	    -11.10770126	      8.35731173	     -0.95632621	     -5.27510500	     -1.58849374	      1.76944588
      0.20000000	      0.25840494	     -2.12292326	     -4.92230632	     -1.35612924	      0.93790926	      0.02133283	     -0.05278292	      2.33600466	     -1.54955456	     -9.12599337	      4.78895724	     -0.25768512	     -0.55567076	     -3.29516427	    -14.02595730	    -11.06817688	      8.35638080	     -0.95845787	     -5.28544109	     -1.58753057	      1.75315314
      0.21000000	      0.24503578	     -2.11886849	     -4.91945273	     -1.35604589	      0.93788890	      0.02137586	     -0.04445072	      2.33649004	     -1.55199042	     -9.12437410	      4.79168946	     -0.25780434	     -0.55235492	     -3.29427755	    -14.02961711	    -11.05814931	      8.35648776	     -0.95848889	     -5.30496689	     -1.58764874	      1.75519439
      0.22000000	      0.22938223	     -2.11131943	     -4.92457832	     -1.35592001	      0.93786249	      0.02143425	     -0.01539493	      2.33210485	     -1.57071306	     -9.16617885	      4.81248684	     -0.26081372	     -0.56971413	     -3.28561358	    -14.04895134	    -11.00740374	      8.35337425	     -0.95695179	     -5.31474634	     -1.59235962	      1.75542607
      0.23000000	      0.21444197	     -2.10789479	     -4.92490276	     -1.35581136	      0.93783964	      0.02150516	     -0.00785878	      2.33470149	     -1.57327907	     -9.16223417	      4.81534624	     -0.26114388	     -0.56704182	     -3.28693171	    -14.05099331	    -10.99927232	      8.35341447	     -0.95657103	     -5.33435950	     -1.59669437	      1.75634167
      0.24000000	      0.19843678	     -2.10526808	     -4.92335642	     -1.35568248	      0.93781585	      0.02158686	     -0.00077582	      2.33868320	     -1.57578540	     -9.16059541	      4.81840986	     -0.26172959	     -0.56557151	     -3.28950595	    -14.05416665	    -10.98753230	      8.35423060	     -0.95590676	     -5.35192676	     -1.60249278	      1.75551362
      0.25000000	      0.17549530	     -2.10411001	     -4.92643315	     -1.35550580	      0.93777715	      0.02167924	      0.01721923	      2.34410178	     -1.58592274	     -9.17269375	      4.83580814	     -0.26820739	     -0.57591455	     -3.29046082	    -14.05657718	    -10.94370591	      8.35941086	     -0.94878851	     -5.35370046	     -1.60503565	      1.74119641
      0.26000000	      0.15919808	     -2.10260825	     -4.92951875	     -1.35534454	      0.93774653	      0.02178634	      0.02121599	      2.34985164	     -1.58808659	     -9.16758463	      4.83800253	     -0.26898024	     -0.57362436	     -3.29517309	    -14.05430538	    -10.93920664	      8.36041375	     -0.94784290	     -5.37017621	     -1.61337226	      1.73937687
      0.27000000	      0.14243673	     -2.10244623	     -4.93416001	     -1.35516195	      0.93771218	      0.02191096	      0.02349431	      2.35785663	     -1.58981431	     -9.16132519	      4.84055186	     -0.26997243	     -0.57175296	     -3.30215010	    -14.04920508	    -10.93584321	      8.36263607	     -0.94674432	     -5.38411228	     -1.62298494	      1.73463571
      0.28000000	      0.10907891	     -2.12697711	     -4.90518747	     -1.35494470	      0.93764741	      0.02200862	      0.01337528	      2.39716986	     -1.57741252	     -9.11131332	      4.86313287	     -0.28945164	     -0.54644181	     -3.33780408	    -13.95909403	    -10.94311818	      8.40370563	     -0.92865541	     -5.37544618	     -1.59972575	      1.67930018
      0.29000000	      0.09295450	     -2.12745537	     -4.91371166	     -1.35473321	      0.93761200	      0.02214820	      0.01421978	      2.40598322	     -1.58290728	     -9.10662808	      4.86177818	     -0.29078405	     -0.54476446	     -3.34552769	    -13.95399191	    -10.94543620	      8.40589827	     -0.92767447	     -5.38904336	     -1.61007661	      1.67361304
